<svg width="48" height="48" viewBox="0 0 48 48" fill="none" xmlns="http://www.w3.org/2000/svg">
<path d="M24 0C10.7736 0 0 10.7736 0 24C0 37.2264 10.7736 48 24 48C37.2264 48 48 37.2264 48 24C48 10.7736 37.2264 0 24 0ZM24 4.8C34.6323 4.8 43.2 13.3677 43.2 24C43.2 34.6323 34.6323 43.2 24 43.2C13.3677 43.2 4.8 34.6323 4.8 24C4.8 13.3677 13.3677 4.8 24 4.8ZM10.6688 15.6C9.75435 15.6 9.6 16.0481 9.6 16.5281C9.6 17.3945 10.3188 22.0716 14.25 27.45C17.0988 31.3524 20.8541 33.6 24.1781 33.6C26.1917 33.6 26.4 33.0867 26.4 32.2875V28.7203C26.4 27.7579 26.6217 27.6 27.2625 27.6C27.7209 27.6 28.65 27.9 30.45 30C32.526 32.4216 32.9018 33.6 34.0922 33.6H37.2375C37.9671 33.6 38.3879 33.2952 38.4047 32.7C38.4071 32.5488 38.3848 32.3763 38.3344 32.1891C38.1016 31.4979 37.0367 29.8104 35.7047 28.2C34.9655 27.3072 34.2383 26.4229 33.9047 25.9453C33.6767 25.6309 33.5904 25.4112 33.6 25.2C33.6096 24.9792 33.7248 24.7639 33.9 24.4687C33.8688 24.4687 37.929 18.7716 38.325 16.8516C38.3802 16.6692 38.4072 16.4988 38.4 16.35C38.3808 15.9156 38.0813 15.6 37.3781 15.6H34.2375C33.4455 15.6 33.0777 16.0785 32.8641 16.5609C32.8641 16.5609 30.9084 20.5908 28.65 23.25C27.918 24.018 27.546 24 27.15 24C26.9388 24 26.4 23.7447 26.4 23.0391V16.8188C26.4 15.986 26.1954 15.6 25.5234 15.6H19.9453C19.4557 15.6 19.2 15.9824 19.2 16.3688C19.2 17.168 20.2776 17.3638 20.4 19.6078V23.9531C20.4 25.0091 20.2194 25.2 19.8234 25.2C18.7554 25.2 16.6525 21.5981 15.2438 16.8797C14.939 15.9509 14.6342 15.6 13.8422 15.6H10.6688Z" fill="white"/>
</svg>
