<svg width="48" height="48" viewBox="0 0 48 48" fill="none" xmlns="http://www.w3.org/2000/svg">
<path d="M44.5744 0.0284181C43.7766 -0.0655877 42.9093 0.0728374 42.0379 0.455527C40.9577 0.927555 24.0308 8.83777 8.25192 16.2169L3.03821 18.6545C1.01934 19.5639 0 21.0429 0 23.035C0 24.4297 0.531349 26.3216 3.06634 27.4363L11.8668 31.3532C12.6278 33.8893 14.3953 39.7779 14.8394 41.3434C15.1035 42.2714 15.7704 44.6094 17.4556 45.1561C17.8013 45.2868 18.162 45.354 18.5293 45.354C19.5928 45.354 20.3585 44.8042 20.733 44.4842L26.3264 39.2286L33.1202 46.2082C33.3819 46.5042 34.7668 48 36.6273 48C38.9486 48 40.7095 45.8532 41.0768 43.7758C41.276 42.6371 47.8283 6.09636 47.8283 6.10169C48.4165 3.17085 47.359 1.65047 46.6796 1.00243C46.0975 0.449068 45.3723 0.122424 44.5744 0.0284181ZM42.985 5.78917C42.08 10.8295 37.1465 38.3414 36.3975 42.307L26.4671 32.1032L19.7296 38.4421L21.5957 30.3323C21.5957 30.3323 34.4688 15.8564 35.2441 15.0137C35.8683 14.339 35.999 14.1025 35.999 13.8678C35.999 13.5558 35.8545 13.3313 35.5208 13.3313C35.2207 13.3313 34.8132 13.6507 34.5971 13.8001C31.8524 15.701 20.1651 23.0978 14.4127 26.7331L6.06704 23.0298L10.118 21.139C20.438 16.3121 38.8176 7.71462 42.985 5.78917Z" fill="white"/>
</svg>
